<svg width="17" height="16" viewBox="0 0 17 16" xmlns="http://www.w3.org/2000/svg">
<path d="M7.33366 13.2499C8.81281 13.2496 10.2493 12.7792 11.4145 11.9136L15.0778 15.3938L16.2562 14.2743L12.5928 10.7942C13.5045 9.68715 14 8.32214 14.0003 6.91658C14.0003 3.42454 11.0095 0.583252 7.33366 0.583252C3.65783 0.583252 0.666992 3.42454 0.666992 6.91658C0.666992 10.4086 3.65783 13.2499 7.33366 13.2499ZM7.33366 2.16659C10.0912 2.16659 12.3337 4.29696 12.3337 6.91658C12.3337 9.53621 10.0912 11.6666 7.33366 11.6666C4.57616 11.6666 2.33366 9.53621 2.33366 6.91658C2.33366 4.29696 4.57616 2.16659 7.33366 2.16659Z"/>
</svg>
